<?xml version="1.0" standalone="no"?><!DOCTYPE svg PUBLIC "-//W3C//DTD SVG 1.1//EN" "http://www.w3.org/Graphics/SVG/1.1/DTD/svg11.dtd"><svg t="1534295928714" class="icon" style="" viewBox="0 0 1024 1024" version="1.1" xmlns="http://www.w3.org/2000/svg" p-id="7785" xmlns:xlink="http://www.w3.org/1999/xlink" width="200" height="200"><defs><style type="text/css"></style></defs><path d="M494.3 543.2m-461.7 0a461.7 461.7 0 1 0 923.4 0 461.7 461.7 0 1 0-923.4 0Z" fill="#9FE2CD" p-id="7786"></path><path d="M639.8 300c-66.9 0-123.8 43.9-145.5 105.3C472.6 343.9 415.7 300 348.8 300c-85.5 0-156.4 71.8-154.8 160.3 2.6 143.1 237.1 326.1 300.3 326.1s298.7-168 300.3-326.1c0.9-88.5-69.3-160.3-154.8-160.3z" fill="#F7C6B0" p-id="7787"></path><path d="M494.3 792.4c-34.4 0-110.5-47.7-177-111-36.5-34.7-67.4-71.6-89.2-106.6-25.9-41.4-39.4-79.9-40-114.4-0.8-44.5 15.9-86.5 47-118.2 30.5-31.1 71-48.2 113.8-48.2 33.7 0 65.9 10.6 93.2 30.8 22.7 16.7 40.5 38.8 52.2 64.5 11.7-25.7 29.6-47.8 52.2-64.5 27.3-20.1 59.6-30.8 93.2-30.8 42.4 0 82.5 16.9 112.9 47.5 31.3 31.7 48.4 73.9 47.9 118.8-0.4 37.9-13.7 78.5-39.6 120.8-21.7 35.4-52.6 72.1-89.4 106-63.9 59.1-141.8 105.3-177.2 105.3zM348.8 306c-39.6 0-77 15.8-105.3 44.6-28.8 29.4-44.3 68.3-43.6 109.6 0.6 32.3 13.4 68.7 38.2 108.2 21.4 34.1 51.6 70.2 87.3 104.2 70.8 67.4 141.4 107.7 168.7 107.7 28.1 0 100.8-39.1 169.2-102.2 36-33.2 66.1-68.9 87.3-103.4 24.7-40.3 37.5-78.9 37.8-114.6 0.4-41.7-15.4-80.9-44.5-110.3-28.1-28.4-65.2-44-104.4-44-31.1 0-60.9 9.8-86.1 28.4-24.7 18.2-43.3 43.4-53.7 72.9-0.8 2.4-3.1 4-5.7 4s-4.8-1.6-5.7-4c-10.4-29.4-28.9-54.6-53.7-72.9-24.9-18.3-54.7-28.2-85.8-28.2z" fill="#0C0C0C" p-id="7788"></path><path d="M327.7 850.7L52.2 905.3l149.6-237.7-3.8 137.5z" fill="#FFFFFF" p-id="7789"></path><path d="M52.2 911.3c-2 0-3.8-1-4.9-2.6-1.4-2-1.4-4.6-0.1-6.6l149.6-237.7c1.4-2.3 4.2-3.3 6.8-2.5 2.6 0.8 4.3 3.2 4.3 5.9l-3.7 133.1 125.6 44.2c2.6 0.9 4.2 3.4 4 6.1-0.2 2.7-2.2 4.9-4.8 5.5L53.4 911.2c-0.4 0.1-0.8 0.1-1.2 0.1z m143-222L64.7 896.7 305 849.1l-109-38.4c-2.5-0.9-4.1-3.2-4-5.8l3.2-115.6z" fill="#0C0C0C" p-id="7790"></path><path d="M876.1 12.3l12.7 104.6 104.6 12.7-140.3 140.2-104.6-12.6-12.6-104.6z" fill="#FFFFFF" p-id="7791"></path><path d="M853.1 275.8h-0.7l-104.6-12.6c-2.7-0.3-4.9-2.5-5.2-5.2L730 153.4c-0.2-1.8 0.4-3.7 1.7-5L871.9 8c1.6-1.6 4-2.2 6.2-1.4 2.2 0.7 3.7 2.7 4 5l12.1 100 100 12.1c2.3 0.3 4.2 1.8 5 4 0.8 2.2 0.2 4.6-1.4 6.2L857.4 274.1c-1.1 1.1-2.7 1.7-4.3 1.7z m-99.2-24l97.1 11.7L980.5 134l-92.4-11.2c-2.7-0.3-4.9-2.5-5.2-5.2l-11.2-92.4-129.5 129.5 11.7 97.1z" fill="#0C0C0C" p-id="7792"></path><path d="M642.5 605.4c0 34.3-27.8 62.2-62.2 62.2-34.3 0-62.2-27.8-62.2-62.2 0-34.3 62.2-117.7 62.2-117.7s62.2 83.4 62.2 117.7z" fill="#F9AFBD" p-id="7793"></path><path d="M580.3 673.6c-37.6 0-68.2-30.6-68.2-68.2 0-35.9 60.8-117.9 63.4-121.3 1.1-1.5 2.9-2.4 4.8-2.4s3.7 0.9 4.8 2.4c2.6 3.5 63.4 85.4 63.4 121.3 0 37.6-30.6 68.2-68.2 68.2z m0-175.8c-19.2 26.8-56.2 83.3-56.2 107.6 0 31 25.2 56.2 56.2 56.2 31 0 56.2-25.2 56.2-56.2 0-24.3-37-80.7-56.2-107.6z" fill="#0C0C0C" p-id="7794"></path><path d="M620.1 382.9l266-266" fill="#FFFFFF" p-id="7795"></path><path d="M620.1 388.9c-1.5 0-3.1-0.6-4.2-1.8-2.3-2.3-2.3-6.1 0-8.5l266-266c2.3-2.3 6.1-2.3 8.5 0 2.3 2.3 2.3 6.1 0 8.5l-266 266c-1.2 1.2-2.7 1.8-4.3 1.8z" fill="#0C0C0C" p-id="7796"></path><path d="M198 805.1l189.6-189.7" fill="#FFFFFF" p-id="7797"></path><path d="M198 811.1c-1.5 0-3.1-0.6-4.2-1.8-2.3-2.3-2.3-6.1 0-8.5l189.6-189.6c2.3-2.3 6.1-2.3 8.5 0 2.3 2.3 2.3 6.1 0 8.5L202.2 809.3c-1.1 1.2-2.7 1.8-4.2 1.8z" fill="#0C0C0C" p-id="7798"></path></svg>